<?xml version="1.0" encoding="UTF-8" standalone="no"?>
<!DOCTYPE svg PUBLIC "-//W3C//DTD SVG 1.0//EN" "http://www.w3.org/TR/2001/PR-SVG-20010719/DTD/svg10.dtd">
<svg width="94cm" height="88cm" viewBox="-900 91 1874 1743" xmlns="http://www.w3.org/2000/svg" xmlns:xlink="http://www.w3.org/1999/xlink">
  <g>
    <rect style="fill: #ffffff" x="-897.23" y="112.667" width="1870.6" height="1142.18"/>
    <rect style="fill: none; fill-opacity:0; stroke-width: 2; stroke: #000000" x="-897.23" y="112.667" width="1870.6" height="1142.18"/>
    <rect style="fill: #ffffff" x="-897.23" y="92.6666" width="40" height="20"/>
    <rect style="fill: none; fill-opacity:0; stroke-width: 2; stroke: #000000" x="-897.23" y="92.6666" width="40" height="20"/>
    <text font-size="12.7998" style="fill: #000000;text-anchor:start;font-family:monospace;font-style:normal;font-weight:normal" x="-895.23" y="107.667">View</text>
  </g>
  <g>
    <rect style="fill: #ffffff" x="-898.398" y="1749.67" width="1213" height="84"/>
    <rect style="fill: none; fill-opacity:0; stroke-width: 2; stroke: #000000" x="-898.398" y="1749.67" width="1213" height="84"/>
    <rect style="fill: #ffffff" x="-898.398" y="1729.67" width="96.4" height="20"/>
    <rect style="fill: none; fill-opacity:0; stroke-width: 2; stroke: #000000" x="-898.398" y="1729.67" width="96.4" height="20"/>
    <text font-size="12.7998" style="fill: #000000;text-anchor:start;font-family:monospace;font-style:normal;font-weight:normal" x="-896.398" y="1744.67">XmlIOFactory</text>
  </g>
  <g>
    <rect style="fill: #ffffff" x="-897" y="1283.67" width="1213" height="422"/>
    <rect style="fill: none; fill-opacity:0; stroke-width: 2; stroke: #000000" x="-897" y="1283.67" width="1213" height="422"/>
    <rect style="fill: #ffffff" x="-897" y="1263.67" width="150.3" height="20"/>
    <rect style="fill: none; fill-opacity:0; stroke-width: 2; stroke: #000000" x="-897" y="1263.67" width="150.3" height="20"/>
    <text font-size="12.7998" style="fill: #000000;text-anchor:start;font-family:monospace;font-style:normal;font-weight:normal" x="-895" y="1278.67">Model </text>
  </g>
  <g>
    <rect style="fill: #73a6e1" x="-838" y="339.184" width="371.5" height="44"/>
    <rect style="fill: none; fill-opacity:0; stroke-width: 2; stroke: #000000" x="-838" y="339.184" width="371.5" height="44"/>
    <text font-size="12.8" style="fill: #000000;text-anchor:middle;font-family:monospace;font-style:normal;font-weight:normal" x="-652.25" y="355.184">&lt;&lt;interface&gt;&gt;</text>
    <text font-size="16" style="fill: #000000;text-anchor:middle;font-family:sans-serif;font-style:italic;font-weight:700" x="-652.25" y="374.184">net.imglib2.ui.InteractiveDisplayCanvas</text>
    <rect style="fill: #73a6e1" x="-512.5" y="325.184" width="69.6" height="20"/>
    <rect style="fill: none; fill-opacity:0; stroke-width: 2; stroke-dasharray: 6; stroke: #000000" x="-512.5" y="325.184" width="69.6" height="20"/>
    <text font-size="12.8" style="fill: #000000;text-anchor:start;font-family:monospace;font-style:normal;font-weight:normal" x="-506.5" y="339.184">A:Object</text>
  </g>
  <g>
    <rect style="fill: #d8e5e5" x="-703" y="459" width="283.8" height="28"/>
    <rect style="fill: none; fill-opacity:0; stroke-width: 2; stroke: #000000" x="-703" y="459" width="283.8" height="28"/>
    <text font-size="16" style="fill: #000000;text-anchor:middle;font-family:sans-serif;font-style:normal;font-weight:700" x="-561.1" y="478">JHotDrawInteractiveDisplay2D</text>
    <rect style="fill: #d8e5e5" x="-465.2" y="445" width="69.6" height="20"/>
    <rect style="fill: none; fill-opacity:0; stroke-width: 2; stroke-dasharray: 6; stroke: #000000" x="-465.2" y="445" width="69.6" height="20"/>
    <text font-size="12.8" style="fill: #000000;text-anchor:start;font-family:monospace;font-style:normal;font-weight:normal" x="-459.2" y="459">A:Object</text>
  </g>
  <g>
    <rect style="fill: #90ee90" x="89.044" y="169.554" width="232" height="28"/>
    <rect style="fill: none; fill-opacity:0; stroke-width: 2; stroke: #000000" x="89.044" y="169.554" width="232" height="28"/>
    <text font-size="16" style="fill: #000000;text-anchor:middle;font-family:sans-serif;font-style:normal;font-weight:700" x="205.044" y="188.554">javax.swing.JComponent</text>
  </g>
  <g>
    <polyline style="fill: none; fill-opacity:0; stroke-width: 2; stroke: #000000" points="205.044,216.797 205.044,275.778 -66.05,275.778 -66.05,336.994 "/>
    <polygon style="fill: #ffffff" points="213.044,216.797 205.044,200.797 197.044,216.797 "/>
    <polygon style="fill: none; fill-opacity:0; stroke-width: 2; stroke: #000000" points="213.044,216.797 205.044,200.797 197.044,216.797 "/>
  </g>
  <g>
    <rect style="fill: #d8e5e5" x="-179.5" y="338" width="226.9" height="28"/>
    <rect style="fill: none; fill-opacity:0; stroke-width: 2; stroke: #000000" x="-179.5" y="338" width="226.9" height="28"/>
    <text font-size="16" style="fill: #000000;text-anchor:middle;font-family:sans-serif;font-style:italic;font-weight:700" x="-66.05" y="357">InteractiveDrawingView</text>
    <rect style="fill: #d8e5e5" x="-179.5" y="366" width="226.9" height="20"/>
    <rect style="fill: none; fill-opacity:0; stroke-width: 2; stroke: #000000" x="-179.5" y="366" width="226.9" height="20"/>
    <text font-size="12.8" style="fill: #000000;text-anchor:start;font-family:monospace;font-style:normal;font-weight:normal" x="-176.5" y="380">+setDrawing(drawing:Drawing)</text>
  </g>
  <g>
    <polyline style="fill: none; fill-opacity:0; stroke-width: 2; stroke: #000000" points="-66.05,404.236 -66.05,422.996 -561.1,422.996 -561.1,443.993 "/>
    <polygon style="fill: #ffffff" points="-58.05,404.236 -66.05,388.236 -74.05,404.236 "/>
    <polygon style="fill: none; fill-opacity:0; stroke-width: 2; stroke: #000000" points="-58.05,404.236 -66.05,388.236 -74.05,404.236 "/>
  </g>
  <g>
    <rect style="fill: #ee90bc" x="-284.456" y="153.554" width="300.5" height="44"/>
    <rect style="fill: none; fill-opacity:0; stroke-width: 2; stroke: #000000" x="-284.456" y="153.554" width="300.5" height="44"/>
    <text font-size="12.8" style="fill: #000000;text-anchor:middle;font-family:monospace;font-style:normal;font-weight:normal" x="-134.206" y="169.554">&lt;&lt;interface&gt;&gt;</text>
    <text font-size="16" style="fill: #000000;text-anchor:middle;font-family:sans-serif;font-style:normal;font-weight:700" x="-134.206" y="188.554">org.jhotdraw.draw.DrawingView</text>
  </g>
  <g>
    <rect style="fill: #ee90bc" x="-674" y="153.667" width="343.8" height="44"/>
    <rect style="fill: none; fill-opacity:0; stroke-width: 2; stroke: #000000" x="-674" y="153.667" width="343.8" height="44"/>
    <text font-size="12.8" style="fill: #000000;text-anchor:middle;font-family:monospace;font-style:normal;font-weight:normal" x="-502.1" y="169.667">&lt;&lt;interface&gt;&gt;</text>
    <text font-size="16" style="fill: #000000;text-anchor:middle;font-family:sans-serif;font-style:normal;font-weight:700" x="-502.1" y="188.667">org.jhotdraw.gui.EditableComponent</text>
  </g>
  <g>
    <rect style="fill: #d8e5e5" x="-182" y="628.999" width="194.95" height="28"/>
    <rect style="fill: none; fill-opacity:0; stroke-width: 2; stroke: #000000" x="-182" y="628.999" width="194.95" height="28"/>
    <text font-size="16" style="fill: #000000;text-anchor:middle;font-family:sans-serif;font-style:normal;font-weight:700" x="-84.525" y="647.999">InteractiveViewer2D</text>
    <rect style="fill: #d8e5e5" x="-182" y="656.999" width="194.95" height="8"/>
    <rect style="fill: none; fill-opacity:0; stroke-width: 2; stroke: #000000" x="-182" y="656.999" width="194.95" height="8"/>
    <rect style="fill: #d8e5e5" x="-33.05" y="614.999" width="69.6" height="20"/>
    <rect style="fill: none; fill-opacity:0; stroke-width: 2; stroke-dasharray: 6; stroke: #000000" x="-33.05" y="614.999" width="69.6" height="20"/>
    <text font-size="12.8" style="fill: #000000;text-anchor:start;font-family:monospace;font-style:normal;font-weight:normal" x="-27.05" y="628.999">T:Object</text>
  </g>
  <g>
    <polyline style="fill: none; fill-opacity:0; stroke-width: 2; stroke: #000000" points="-84.525,588.913 -84.525,542 -561.1,542 -561.1,492.473 "/>
    <polygon style="fill: #000000" points="-84.525,614.085 -89.325,600.085 -84.525,586.085 -79.725,600.085 "/>
    <polygon style="fill: none; fill-opacity:0; stroke-width: 2; stroke: #000000" points="-84.525,614.085 -89.325,600.085 -84.525,586.085 -79.725,600.085 "/>
    <polyline style="fill: none; fill-opacity:0; stroke-width: 2; stroke: #000000" points="-553.1,506.237 -561.1,490.237 -569.1,506.237 "/>
    <text font-size="12.7998" style="fill: #000000;text-anchor:middle;font-family:monospace;font-style:normal;font-weight:normal" x="-322.812" y="539"></text>
    <text font-size="12.7998" style="fill: #000000;text-anchor:start;font-family:monospace;font-style:normal;font-weight:normal" x="-73.525" y="610.085">1</text>
    <text font-size="12.7998" style="fill: #000000;text-anchor:start;font-family:monospace;font-style:normal;font-weight:normal" x="-550.1" y="500.001">1</text>
  </g>
  <g>
    <rect style="fill: #d8e5e5" x="288" y="937.666" width="248.7" height="28"/>
    <rect style="fill: none; fill-opacity:0; stroke-width: 2; stroke: #000000" x="288" y="937.666" width="248.7" height="28"/>
    <text font-size="16" style="fill: #000000;text-anchor:middle;font-family:sans-serif;font-style:normal;font-weight:700" x="412.35" y="956.666">InteractiveDisplayView</text>
    <rect style="fill: #d8e5e5" x="288" y="965.666" width="248.7" height="52"/>
    <rect style="fill: none; fill-opacity:0; stroke-width: 2; stroke: #000000" x="288" y="965.666" width="248.7" height="52"/>
    <text font-size="12.8" style="fill: #000000;text-anchor:start;font-family:monospace;font-style:normal;font-weight:normal" x="291" y="979.666">-undo: UndoRedoManager</text>
    <text font-size="12.8" style="fill: #000000;text-anchor:start;font-family:monospace;font-style:normal;font-weight:normal" x="291" y="995.666">-editor: DrawingEditor</text>
    <text font-size="12.8" style="fill: #000000;text-anchor:start;font-family:monospace;font-style:normal;font-weight:normal" x="291" y="1011.67">-iview2d: InteractiveRealViewer</text>
  </g>
  <g>
    <polyline style="fill: none; fill-opacity:0; stroke-width: 2; stroke: #000000" points="412.35,911.489 412.35,837.536 412.454,837.536 412.454,741.884 "/>
    <polygon style="fill: #000000" points="412.35,936.661 407.55,922.661 412.35,908.661 417.15,922.661 "/>
    <polygon style="fill: none; fill-opacity:0; stroke-width: 2; stroke: #000000" points="412.35,936.661 407.55,922.661 412.35,908.661 417.15,922.661 "/>
    <polyline style="fill: none; fill-opacity:0; stroke-width: 2; stroke: #000000" points="420.454,755.648 412.454,739.648 404.454,755.648 "/>
    <text font-size="12.7998" style="fill: #000000;text-anchor:middle;font-family:monospace;font-style:normal;font-weight:normal" x="412.402" y="834.536">&lt;&lt;create&gt;&gt;</text>
    <text font-size="12.7998" style="fill: #000000;text-anchor:start;font-family:monospace;font-style:normal;font-weight:normal" x="423.35" y="932.661">1</text>
    <text font-size="12.7998" style="fill: #000000;text-anchor:start;font-family:monospace;font-style:normal;font-weight:normal" x="423.454" y="749.412">1</text>
  </g>
  <g>
    <rect style="fill: #ee90bc" x="447.5" y="1114.33" width="257.25" height="28"/>
    <rect style="fill: none; fill-opacity:0; stroke-width: 2; stroke: #000000" x="447.5" y="1114.33" width="257.25" height="28"/>
    <text font-size="16" style="fill: #000000;text-anchor:middle;font-family:sans-serif;font-style:normal;font-weight:700" x="576.125" y="1133.33">org.jhotdraw.draw.Drawing</text>
  </g>
  <g>
    <polyline style="fill: none; fill-opacity:0; stroke-width: 2; stroke: #000000" points="412.35,1043.84 412.35,1065.5 576.125,1065.5 576.125,1108.85 "/>
    <polygon style="fill: #000000" points="412.35,1018.67 417.15,1032.67 412.35,1046.67 407.55,1032.67 "/>
    <polygon style="fill: none; fill-opacity:0; stroke-width: 2; stroke: #000000" points="412.35,1018.67 417.15,1032.67 412.35,1046.67 407.55,1032.67 "/>
    <polyline style="fill: none; fill-opacity:0; stroke-width: 2; stroke: #000000" points="568.125,1095.09 576.125,1111.09 584.125,1095.09 "/>
    <text font-size="12.7998" style="fill: #000000;text-anchor:middle;font-family:monospace;font-style:normal;font-weight:normal" x="494.237" y="1062.5"></text>
    <text font-size="12.7998" style="fill: #000000;text-anchor:start;font-family:monospace;font-style:normal;font-weight:normal" x="423.35" y="1030.67">1</text>
    <text font-size="12.7998" style="fill: #000000;text-anchor:start;font-family:monospace;font-style:normal;font-weight:normal" x="587.125" y="1109.33">1</text>
  </g>
  <g>
    <rect style="fill: #d8e5e5" x="-231" y="1364.67" width="53.6" height="28"/>
    <rect style="fill: none; fill-opacity:0; stroke-width: 2; stroke: #000000" x="-231" y="1364.67" width="53.6" height="28"/>
    <text font-size="16" style="fill: #000000;text-anchor:middle;font-family:sans-serif;font-style:italic;font-weight:700" x="-204.2" y="1383.67">Main</text>
  </g>
  <g>
    <rect style="fill: #d8e5e5" x="-370" y="1487.67" width="331.35" height="28"/>
    <rect style="fill: none; fill-opacity:0; stroke-width: 2; stroke: #000000" x="-370" y="1487.67" width="331.35" height="28"/>
    <text font-size="16" style="fill: #000000;text-anchor:middle;font-family:sans-serif;font-style:italic;font-weight:700" x="-204.325" y="1506.67">InteractiveDisplayApplicationModel</text>
  </g>
  <g>
    <polyline style="fill: none; fill-opacity:0; stroke-width: 2; stroke-dasharray: 8; stroke: #000000" points="-204.2,1393.67 -204.2,1436.17 -204.325,1436.17 -204.325,1479.95 "/>
    <polyline style="fill: none; fill-opacity:0; stroke-width: 2; stroke: #000000" points="-209.325,1467.31 -204.325,1483.31 -199.325,1467.31 "/>
    <text font-size="12.7998" style="fill: #000000;text-anchor:middle;font-family:monospace;font-style:normal;font-weight:normal" x="-204.263" y="1433.17">&lt;&lt;create&gt;&gt;</text>
  </g>
  <g>
    <rect style="fill: #d8e5e5" x="-348" y="1605.67" width="289.35" height="28"/>
    <rect style="fill: none; fill-opacity:0; stroke-width: 2; stroke: #000000" x="-348" y="1605.67" width="289.35" height="28"/>
    <text font-size="16" style="fill: #000000;text-anchor:middle;font-family:sans-serif;font-style:italic;font-weight:700" x="-203.325" y="1624.67">InteractiveDisplayMenuBuilder</text>
  </g>
  <g>
    <polyline style="fill: none; fill-opacity:0; stroke-width: 2; stroke-dasharray: 8; stroke: #000000" points="-204.325,1516.66 -204.325,1561.17 -203.325,1561.17 -203.325,1597.96 "/>
    <polyline style="fill: none; fill-opacity:0; stroke-width: 2; stroke: #000000" points="-208.325,1585.31 -203.325,1601.31 -198.325,1585.31 "/>
    <text font-size="12.7998" style="fill: #000000;text-anchor:middle;font-family:monospace;font-style:normal;font-weight:normal" x="-203.825" y="1558.17">&lt;&lt;create&gt;&gt;</text>
  </g>
  <g>
    <rect style="fill: #d8e5e5" x="-616" y="1424.67" width="232.6" height="28"/>
    <rect style="fill: none; fill-opacity:0; stroke-width: 2; stroke: #000000" x="-616" y="1424.67" width="232.6" height="28"/>
    <text font-size="16" style="fill: #000000;text-anchor:middle;font-family:sans-serif;font-style:italic;font-weight:700" x="-499.7" y="1443.67">MeanIntensityToolAction</text>
  </g>
  <g>
    <polyline style="fill: none; fill-opacity:0; stroke-width: 2; stroke-dasharray: 8; stroke: #000000" points="-370,1501.67 -370,1501.67 -499.7,1501.67 -499.7,1460.26 "/>
    <polyline style="fill: none; fill-opacity:0; stroke-width: 2; stroke: #000000" points="-494.7,1472.91 -499.7,1456.91 -504.7,1472.91 "/>
    <text font-size="12.7998" style="fill: #000000;text-anchor:middle;font-family:monospace;font-style:normal;font-weight:normal" x="-434.85" y="1498.67">&lt;&lt;create&gt;&gt;</text>
  </g>
  <g>
    <rect style="fill: #d8e5e5" x="-861" y="1425.67" width="233.9" height="28"/>
    <rect style="fill: none; fill-opacity:0; stroke-width: 2; stroke: #000000" x="-861" y="1425.67" width="233.9" height="28"/>
    <text font-size="16" style="fill: #000000;text-anchor:middle;font-family:sans-serif;font-style:italic;font-weight:700" x="-744.05" y="1444.67">GrowSelectionToolAction</text>
  </g>
  <g>
    <polyline style="fill: none; fill-opacity:0; stroke-width: 2; stroke-dasharray: 8; stroke: #000000" points="-370,1501.67 -370,1501.67 -744.05,1501.67 -744.05,1461.14 "/>
    <polyline style="fill: none; fill-opacity:0; stroke-width: 2; stroke: #000000" points="-739.05,1473.79 -744.05,1457.79 -749.05,1473.79 "/>
    <text font-size="12.7998" style="fill: #000000;text-anchor:middle;font-family:monospace;font-style:normal;font-weight:normal" x="-557.025" y="1498.67">&lt;&lt;create&gt;&gt;</text>
  </g>
  <g>
    <rect style="fill: #d8e5e5" x="-693.5" y="1555.67" width="91.45" height="28"/>
    <rect style="fill: none; fill-opacity:0; stroke-width: 2; stroke: #000000" x="-693.5" y="1555.67" width="91.45" height="28"/>
    <text font-size="16" style="fill: #000000;text-anchor:middle;font-family:sans-serif;font-style:italic;font-weight:700" x="-647.775" y="1574.67">SpimTool</text>
  </g>
  <g>
    <polyline style="fill: none; fill-opacity:0; stroke-width: 2; stroke-dasharray: 8; stroke: #000000" points="-370,1501.67 -370,1501.85 -647.775,1501.85 -647.775,1547.98 "/>
    <polyline style="fill: none; fill-opacity:0; stroke-width: 2; stroke: #000000" points="-652.775,1535.33 -647.775,1551.33 -642.775,1535.33 "/>
  </g>
  <g>
    <rect style="fill: #d8e5e5" x="-653.5" y="1779.67" width="251.15" height="28"/>
    <rect style="fill: none; fill-opacity:0; stroke-width: 2; stroke: #000000" x="-653.5" y="1779.67" width="251.15" height="28"/>
    <text font-size="16" style="fill: #000000;text-anchor:middle;font-family:sans-serif;font-style:italic;font-weight:700" x="-527.925" y="1798.67">JavaPrimitivesDOMFactory</text>
  </g>
  <g>
    <rect style="fill: #d8e5e5" x="-269.5" y="1779.67" width="185.85" height="28"/>
    <rect style="fill: none; fill-opacity:0; stroke-width: 2; stroke: #000000" x="-269.5" y="1779.67" width="185.85" height="28"/>
    <text font-size="16" style="fill: #000000;text-anchor:middle;font-family:sans-serif;font-style:italic;font-weight:700" x="-176.575" y="1798.67">DefaultDOMFactory</text>
  </g>
  <g>
    <polyline style="fill: none; fill-opacity:0; stroke-width: 2; stroke: #000000" points="-383.106,1793.67 -384.342,1793.67 -271.506,1793.67 -270.506,1793.67 "/>
    <polygon style="fill: #ffffff" points="-383.106,1785.67 -399.106,1793.67 -383.106,1801.67 "/>
    <polygon style="fill: none; fill-opacity:0; stroke-width: 2; stroke: #000000" points="-383.106,1785.67 -399.106,1793.67 -383.106,1801.67 "/>
  </g>
  <g>
    <polyline style="fill: none; fill-opacity:0; stroke-width: 2; stroke-dasharray: 8; stroke: #000000" points="-652.25,402.426 -652.25,422.091 -561.1,422.091 -561.1,443.993 "/>
    <polygon style="fill: #ffffff" points="-644.25,402.426 -652.25,386.426 -660.25,402.426 "/>
    <polygon style="fill: none; fill-opacity:0; stroke-width: 2; stroke: #000000" points="-644.25,402.426 -652.25,386.426 -660.25,402.426 "/>
  </g>
  <g>
    <polyline style="fill: none; fill-opacity:0; stroke-width: 2; stroke-dasharray: 8; stroke: #000000" points="-134.206,216.796 -134.206,275.777 -66.05,275.777 -66.05,336.994 "/>
    <polygon style="fill: #ffffff" points="-126.206,216.796 -134.206,200.796 -142.206,216.796 "/>
    <polygon style="fill: none; fill-opacity:0; stroke-width: 2; stroke: #000000" points="-126.206,216.796 -134.206,200.796 -142.206,216.796 "/>
  </g>
  <g>
    <polyline style="fill: none; fill-opacity:0; stroke-width: 2; stroke-dasharray: 8; stroke: #000000" points="-502.1,216.908 -502.1,275.833 -66.05,275.833 -66.05,336.994 "/>
    <polygon style="fill: #ffffff" points="-494.1,216.908 -502.1,200.908 -510.1,216.908 "/>
    <polygon style="fill: none; fill-opacity:0; stroke-width: 2; stroke: #000000" points="-494.1,216.908 -502.1,200.908 -510.1,216.908 "/>
  </g>
  <g>
    <rect style="fill: #d8e5e5" x="211.104" y="556.406" width="402.7" height="28"/>
    <rect style="fill: none; fill-opacity:0; stroke-width: 2; stroke: #000000" x="211.104" y="556.406" width="402.7" height="28"/>
    <text font-size="16" style="fill: #000000;text-anchor:middle;font-family:sans-serif;font-style:italic;font-weight:700" x="412.454" y="575.406">InteractiveRealViewer</text>
    <rect style="fill: #d8e5e5" x="211.104" y="584.406" width="402.7" height="84"/>
    <rect style="fill: none; fill-opacity:0; stroke-width: 2; stroke: #000000" x="211.104" y="584.406" width="402.7" height="84"/>
    <text font-size="12.8" style="fill: #000000;text-anchor:start;font-family:monospace;font-style:normal;font-weight:normal" x="214.104" y="598.406">#viewerTransform: A</text>
    <text font-size="12.8" style="fill: #000000;text-anchor:start;font-family:monospace;font-style:normal;font-weight:normal" x="214.104" y="614.406">#display: C</text>
    <text font-size="12.8" style="fill: #000000;text-anchor:start;font-family:monospace;font-style:normal;font-weight:normal" x="214.104" y="630.406">#imageRenderer: Renderer&lt;A&gt;</text>
    <text font-size="12.8" style="fill: #000000;text-anchor:start;font-family:monospace;font-style:normal;font-weight:normal" x="214.104" y="646.406">#renderSource: RenderSource&lt;T,A&gt;</text>
    <text font-size="12.8" style="fill: #000000;text-anchor:start;font-family:monospace;font-style:normal;font-weight:normal" x="214.104" y="662.406">#source: RealRandomAccessible&lt;T&gt;</text>
    <rect style="fill: #d8e5e5" x="211.104" y="668.406" width="402.7" height="68"/>
    <rect style="fill: none; fill-opacity:0; stroke-width: 2; stroke: #000000" x="211.104" y="668.406" width="402.7" height="68"/>
    <text font-size="12.8" style="fill: #000000;text-anchor:start;font-family:monospace;font-style:italic;font-weight:normal" x="214.104" y="682.406">+requestRepaint(): void</text>
    <text font-size="12.8" style="fill: #000000;text-anchor:start;font-family:monospace;font-style:italic;font-weight:normal" x="214.104" y="698.406">+getDisplayCanvas(): C</text>
    <text font-size="12.8" style="fill: #000000;text-anchor:start;font-family:monospace;font-style:normal;font-weight:normal" x="214.104" y="714.406">+getSource(): RealRandomAccessible&lt;T&gt;</text>
    <text font-size="12.8" style="fill: #000000;text-anchor:start;font-family:monospace;font-style:normal;font-weight:normal" x="214.104" y="730.406">+getJHotDrawDisplay(): JHotDrawInteractiveDisplay2D</text>
    <rect style="fill: #d8e5e5" x="567.804" y="510.406" width="385.3" height="52"/>
    <rect style="fill: none; fill-opacity:0; stroke-width: 2; stroke-dasharray: 6; stroke: #000000" x="567.804" y="510.406" width="385.3" height="52"/>
    <text font-size="12.8" style="fill: #000000;text-anchor:start;font-family:monospace;font-style:normal;font-weight:normal" x="573.804" y="524.406">T:Object</text>
    <text font-size="12.8" style="fill: #000000;text-anchor:start;font-family:monospace;font-style:normal;font-weight:normal" x="573.804" y="540.406">A:AffineSet </text>
    <text font-size="12.8" style="fill: #000000;text-anchor:start;font-family:monospace;font-style:normal;font-weight:normal" x="573.804" y="556.406">C:JComponent </text>
  </g>
  <g>
    <polyline style="fill: none; fill-opacity:0; stroke-width: 2; stroke: #000000" points="191.862,646.406 115.828,646.406 115.828,646.999 37.5575,646.999 "/>
    <polygon style="fill: #ffffff" points="191.862,654.406 207.862,646.406 191.862,638.406 "/>
    <polygon style="fill: none; fill-opacity:0; stroke-width: 2; stroke: #000000" points="191.862,654.406 207.862,646.406 191.862,638.406 "/>
  </g>
  <g>
    <rect style="fill: #d8e5e5" x="-197.799" y="848.406" width="234.4" height="28"/>
    <rect style="fill: none; fill-opacity:0; stroke-width: 2; stroke: #000000" x="-197.799" y="848.406" width="234.4" height="28"/>
    <text font-size="16" style="fill: #000000;text-anchor:middle;font-family:sans-serif;font-style:normal;font-weight:700" x="-80.5986" y="867.406">InteractiveRealViewer2D</text>
    <rect style="fill: #d8e5e5" x="-197.799" y="876.406" width="234.4" height="8"/>
    <rect style="fill: none; fill-opacity:0; stroke-width: 2; stroke: #000000" x="-197.799" y="876.406" width="234.4" height="8"/>
    <rect style="fill: #d8e5e5" x="-9.3986" y="834.406" width="69.6" height="20"/>
    <rect style="fill: none; fill-opacity:0; stroke-width: 2; stroke-dasharray: 6; stroke: #000000" x="-9.3986" y="834.406" width="69.6" height="20"/>
    <text font-size="12.8" style="fill: #000000;text-anchor:start;font-family:monospace;font-style:normal;font-weight:normal" x="-3.3986" y="848.406">T:Object</text>
  </g>
  <g>
    <polyline style="fill: none; fill-opacity:0; stroke-width: 2; stroke: #000000" points="412.454,755.648 412.454,793.405 -80.5986,793.405 -80.5986,833.398 "/>
    <polygon style="fill: #ffffff" points="420.454,755.648 412.454,739.648 404.454,755.648 "/>
    <polygon style="fill: none; fill-opacity:0; stroke-width: 2; stroke: #000000" points="420.454,755.648 412.454,739.648 404.454,755.648 "/>
  </g>
  <g>
    <polyline style="fill: none; fill-opacity:0; stroke-width: 2; stroke: #000000" points="-80.5986,808.235 -80.5986,792.666 -561.1,792.666 -561.1,492.466 "/>
    <polygon style="fill: #000000" points="-80.5986,833.407 -85.3986,819.407 -80.5986,805.407 -75.7986,819.407 "/>
    <polygon style="fill: none; fill-opacity:0; stroke-width: 2; stroke: #000000" points="-80.5986,833.407 -85.3986,819.407 -80.5986,805.407 -75.7986,819.407 "/>
    <polyline style="fill: none; fill-opacity:0; stroke-width: 2; stroke: #000000" points="-553.1,506.23 -561.1,490.23 -569.1,506.23 "/>
    <text font-size="12.7998" style="fill: #000000;text-anchor:middle;font-family:monospace;font-style:normal;font-weight:normal" x="-320.849" y="789.666"></text>
    <text font-size="12.7998" style="fill: #000000;text-anchor:start;font-family:monospace;font-style:normal;font-weight:normal" x="-69.5986" y="829.407">1</text>
    <text font-size="12.7998" style="fill: #000000;text-anchor:start;font-family:monospace;font-style:normal;font-weight:normal" x="-550.1" y="499.994">1</text>
  </g>
  <g>
    <rect style="fill: #ee90bc" x="539.204" y="817.666" width="291.95" height="28"/>
    <rect style="fill: none; fill-opacity:0; stroke-width: 2; stroke: #000000" x="539.204" y="817.666" width="291.95" height="28"/>
    <text font-size="16" style="fill: #000000;text-anchor:middle;font-family:sans-serif;font-style:italic;font-weight:700" x="685.179" y="836.666">org.jhotdraw.app.AbstractView</text>
  </g>
  <g>
    <polyline style="fill: none; fill-opacity:0; stroke-width: 2; stroke: #000000" points="685.179,864.909 685.179,899.667 412.35,899.667 412.35,936.661 "/>
    <polygon style="fill: #ffffff" points="693.179,864.909 685.179,848.909 677.179,864.909 "/>
    <polygon style="fill: none; fill-opacity:0; stroke-width: 2; stroke: #000000" points="693.179,864.909 685.179,848.909 677.179,864.909 "/>
  </g>
  <g>
    <rect style="fill: #ee90bc" x="561.204" y="1175.67" width="354.95" height="28"/>
    <rect style="fill: none; fill-opacity:0; stroke-width: 2; stroke: #000000" x="561.204" y="1175.67" width="354.95" height="28"/>
    <text font-size="16" style="fill: #000000;text-anchor:middle;font-family:sans-serif;font-style:normal;font-weight:700" x="738.679" y="1194.67">org.jhotdraw.undo.UndoRedoManager</text>
  </g>
  <g>
    <polyline style="fill: none; fill-opacity:0; stroke-width: 2; stroke: #000000" points="412.35,1043.84 412.35,1065.67 738.679,1065.67 738.679,1170.42 "/>
    <polygon style="fill: #000000" points="412.35,1018.67 417.15,1032.67 412.35,1046.67 407.55,1032.67 "/>
    <polygon style="fill: none; fill-opacity:0; stroke-width: 2; stroke: #000000" points="412.35,1018.67 417.15,1032.67 412.35,1046.67 407.55,1032.67 "/>
    <polyline style="fill: none; fill-opacity:0; stroke-width: 2; stroke: #000000" points="730.679,1156.66 738.679,1172.66 746.679,1156.66 "/>
    <text font-size="12.7998" style="fill: #000000;text-anchor:middle;font-family:monospace;font-style:normal;font-weight:normal" x="575.514" y="1062.67"></text>
    <text font-size="12.7998" style="fill: #000000;text-anchor:start;font-family:monospace;font-style:normal;font-weight:normal" x="423.35" y="1030.67">1</text>
    <text font-size="12.7998" style="fill: #000000;text-anchor:start;font-family:monospace;font-style:normal;font-weight:normal" x="749.679" y="1170.89">1</text>
  </g>
  <g>
    <rect style="fill: #ee90bc" x="583.204" y="959.666" width="311.7" height="28"/>
    <rect style="fill: none; fill-opacity:0; stroke-width: 2; stroke: #000000" x="583.204" y="959.666" width="311.7" height="28"/>
    <text font-size="16" style="fill: #000000;text-anchor:middle;font-family:sans-serif;font-style:normal;font-weight:700" x="739.054" y="978.666">org.jhotdraw.draw.DrawingEditor</text>
  </g>
  <g>
    <polyline style="fill: none; fill-opacity:0; stroke-width: 2; stroke: #000000" points="412.35,1043.84 412.35,1065.67 739.054,1065.67 739.054,993.097 "/>
    <polygon style="fill: #000000" points="412.35,1018.67 417.15,1032.67 412.35,1046.67 407.55,1032.67 "/>
    <polygon style="fill: none; fill-opacity:0; stroke-width: 2; stroke: #000000" points="412.35,1018.67 417.15,1032.67 412.35,1046.67 407.55,1032.67 "/>
    <polyline style="fill: none; fill-opacity:0; stroke-width: 2; stroke: #000000" points="747.054,1006.86 739.054,990.861 731.054,1006.86 "/>
    <text font-size="12.7998" style="fill: #000000;text-anchor:middle;font-family:monospace;font-style:normal;font-weight:normal" x="575.702" y="1062.67"></text>
    <text font-size="12.7998" style="fill: #000000;text-anchor:start;font-family:monospace;font-style:normal;font-weight:normal" x="423.35" y="1030.67">1</text>
    <text font-size="12.7998" style="fill: #000000;text-anchor:start;font-family:monospace;font-style:normal;font-weight:normal" x="750.054" y="1000.62">1</text>
  </g>
  <g>
    <polyline style="fill: none; fill-opacity:0; stroke-width: 2; stroke-dasharray: 8; stroke: #000000" points="-38.65,1501.67 122.703,1501.67 122.703,951.666 281.295,951.666 "/>
    <polyline style="fill: none; fill-opacity:0; stroke-width: 2; stroke: #000000" points="268.647,956.666 284.647,951.666 268.647,946.666 "/>
    <text font-size="12.7998" style="fill: #000000;text-anchor:start;font-family:monospace;font-style:normal;font-weight:normal" x="124.703" y="1223.67">&lt;&lt;create&gt;&gt;</text>
  </g>
</svg>
